<?xml version="1.0" encoding="UTF-8"?>
<svg width="78px" height="96px" viewBox="0 0 78 96" version="1.1" xmlns="http://www.w3.org/2000/svg" xmlns:xlink="http://www.w3.org/1999/xlink">
    <!-- Generator: Sketch 52.3 (67297) - http://www.bohemiancoding.com/sketch -->
    <title>address</title>
    <desc>Created with Sketch.</desc>
    <g id="Page-1" stroke="none" stroke-width="1" fill="none" fill-rule="evenodd">
        <g id="address" fill="#FFFFFF" fill-rule="nonzero">
            <path d="M39,19.6 C28.1,19.6 19.2,28.5 19.2,39.4 C19.2,50.3 28.1,59.2 39,59.2 C49.9,59.2 58.8,50.3 58.8,39.4 C58.8,28.5 49.9,19.6 39,19.6 Z M39,54.2 C30.8,54.2 24.2,47.5 24.2,39.4 C24.2,31.3 30.8,24.6 39,24.6 C47.2,24.6 53.8,31.2 53.8,39.4 C53.8,47.6 47.2,54.2 39,54.2 Z M76.2,47.4 C76.3,47 76.4,46.6 76.5,46.2 C77,43.8 77.2,41.4 77.2,39 C77.2,17.5 59.3,0.1 37.7,0.9 C18.6,1.5 2.9,16.3 1,35.3 C0.6,39 0.8,42.7 1.5,46.2 C1.5,46.2 1.6,46.7 1.8,47.5 C2.4,50.1 3.3,52.6 4.3,55 C8.2,64.3 16.8,78.6 35.4,94 C36.4,94.8 37.7,95.3 39,95.3 C40.3,95.3 41.6,94.8 42.6,94 C61.2,78.5 69.8,64.2 73.6,55 C74.8,52.5 75.6,50 76.2,47.4 Z M71.5,45.3 C71.5,45.3 71.4,45.7 71.3,46.2 C70.8,48.5 70,50.7 69,52.8 C65.4,61.7 57.2,75.2 39.4,90 C39.1,90.2 38.9,90.2 38.6,90 C20.8,75.2 12.6,61.7 8.9,52.8 C7.9,50.7 7.2,48.5 6.7,46.2 C6.6,45.7 6.5,45.4 6.5,45.3 C6.5,45.3 6.5,45.2 6.5,45.2 C5.9,42.1 5.7,38.9 6.1,35.7 C7.6,19.3 21.3,6.4 37.8,5.8 C56.6,5.2 72.2,20.3 72.2,39 C72.2,41.1 71.9,43.2 71.5,45.3 Z" id="Shape"></path>
        </g>
    </g>
</svg>