<?xml version="1.0" encoding="UTF-8"?>
<svg width="66px" height="66px" viewBox="0 0 66 66" version="1.1" xmlns="http://www.w3.org/2000/svg" xmlns:xlink="http://www.w3.org/1999/xlink">
    <!-- Generator: Sketch 52.3 (67297) - http://www.bohemiancoding.com/sketch -->
    <title>facebook</title>
    <desc>Created with Sketch.</desc>
    <g id="Page-1" stroke="none" stroke-width="1" fill="none" fill-rule="evenodd">
        <g id="Icons" transform="translate(-164.000000, -348.000000)" fill="#FFFFFF">
            <path d="M167.641325,348 C165.629202,348 164,349.629202 164,351.641325 L164,410.358675 C164,412.370278 165.628943,414 167.641325,414 L199.252818,414 L199.252818,388.446717 L190.649688,388.446717 L190.649688,378.483096 L199.252818,378.483096 L199.252818,371.13641 C199.252818,362.611845 204.46079,357.971625 212.06548,357.971625 C215.708143,357.971625 218.836071,358.24239 219.748267,358.363771 L219.748267,367.27101 L214.474348,367.27101 C210.338949,367.27101 209.536556,369.236911 209.536556,372.120777 L209.536556,378.483096 L219.404148,378.483096 L218.115673,388.446717 L209.536556,388.446717 L209.536556,414 L226.358675,414 C228.370031,414 230,412.370538 230,410.358675 L230,351.641325 C230,349.629202 228.370278,348 226.358675,348 L167.641325,348 Z" id="facebook"></path>
        </g>
    </g>
</svg>