<?xml version="1.0" encoding="UTF-8"?>
<svg width="66px" height="66px" viewBox="0 0 66 66" version="1.1" xmlns="http://www.w3.org/2000/svg" xmlns:xlink="http://www.w3.org/1999/xlink">
    <!-- Generator: Sketch 52.3 (67297) - http://www.bohemiancoding.com/sketch -->
    <title>instagram</title>
    <desc>Created with Sketch.</desc>
    <g id="Page-1" stroke="none" stroke-width="1" fill="none" fill-rule="evenodd">
        <g id="Icons" transform="translate(-334.000000, -348.000000)" fill="#FFFFFF" fill-rule="nonzero">
            <path d="M353.103027,348 C342.567569,348 334,356.593235 334,367.154426 L334,394.850348 C334,405.411514 342.567569,414 353.103027,414 L380.896973,414 C391.432431,414 400,405.411514 400,394.850348 L400,367.154426 C400,356.593235 391.432431,348 380.896973,348 L353.103027,348 Z M353.103027,353.67385 L380.896973,353.67385 C388.395211,353.67385 394.344756,359.637933 394.344756,367.154426 L394.344756,394.850348 C394.344756,402.366867 388.395211,408.326201 380.896973,408.326201 L353.103027,408.326201 C345.604789,408.326201 339.659981,402.366867 339.659981,394.850348 L339.659981,367.154426 C339.659981,359.637933 345.604789,353.67385 353.103027,353.67385 Z M384.712849,359.347624 C382.526494,359.347624 380.755121,361.123322 380.755121,363.314988 C380.755121,365.506744 382.526494,367.282415 384.712849,367.282415 C386.899203,367.282415 388.670588,365.506744 388.670588,363.314988 C388.670588,361.123322 386.899203,359.347624 384.712849,359.347624 Z M367,364.007019 C357.670847,364.007019 350.048429,371.648096 350.048429,381.000013 C350.048429,390.351942 357.670847,397.992968 367,397.992968 C376.329153,397.992968 383.956295,390.351942 383.956295,381.000013 C383.956295,371.648096 376.329153,364.007019 367,364.007019 Z M367,369.680869 C373.270788,369.680869 378.296314,374.713928 378.296314,381.000013 C378.296314,387.28611 373.270788,392.319169 367,392.319169 C360.729212,392.319169 355.70841,387.28611 355.70841,381.000013 C355.70841,374.713928 360.729212,369.680869 367,369.680869 Z" id="instagram"></path>
        </g>
    </g>
</svg>