<?xml version="1.0" encoding="UTF-8"?>
<svg width="66px" height="66px" viewBox="0 0 66 66" version="1.1" xmlns="http://www.w3.org/2000/svg" xmlns:xlink="http://www.w3.org/1999/xlink">
    <!-- Generator: Sketch 52.3 (67297) - http://www.bohemiancoding.com/sketch -->
    <title>linkedin</title>
    <desc>Created with Sketch.</desc>
    <g id="Page-1" stroke="none" stroke-width="1" fill="none" fill-rule="evenodd">
        <g id="Icons" transform="translate(-249.000000, -348.000000)" fill="#FFFFFF" fill-rule="nonzero">
            <path d="M253.880694,348 C251.186962,348 249,350.11128 249,352.72217 L249,409.27783 C249,411.889611 251.186962,414 253.880694,414 L310.119332,414 C312.812947,414 315,411.889611 315,409.27783 L315,352.72217 C315,350.11128 312.812947,348 310.119332,348 L253.880694,348 Z M264.085738,359.079631 C267.496061,359.079631 269.585643,361.299473 269.650407,364.224388 C269.650407,367.084896 267.48807,369.369157 264.011774,369.369157 L263.956418,369.369157 C260.611028,369.369157 258.447196,367.084896 258.447196,364.224388 C258.447196,361.299473 260.675832,359.079631 264.085829,359.079631 L264.085738,359.079631 Z M293.480668,372.749992 C300.039333,372.749992 304.942871,377.007383 304.942871,386.163141 L304.942871,403.251118 L294.978146,403.251118 L294.978146,387.302334 C294.978146,383.295155 293.538299,380.559029 289.931084,380.559029 C287.177201,380.559029 285.530742,382.417113 284.810071,384.197102 C284.546843,384.833958 284.495801,385.71324 284.495801,386.604118 L284.495801,403.251118 L274.512623,403.251118 C274.512623,403.251118 274.643451,376.245226 274.512623,373.44822 L284.495801,373.44822 L284.495801,377.655889 C285.820947,375.624901 288.194808,372.749992 293.480668,372.749992 Z M259.038677,373.44822 L269.00335,373.44822 L269.00335,403.251118 L259.038677,403.251118 L259.038677,373.44822 Z" id="linkedin"></path>
        </g>
    </g>
</svg>