<?xml version="1.0" encoding="UTF-8"?>
<svg width="329px" height="95px" viewBox="0 0 329 95" version="1.1" xmlns="http://www.w3.org/2000/svg" xmlns:xlink="http://www.w3.org/1999/xlink">
    <!-- Generator: Sketch 52.3 (67297) - http://www.bohemiancoding.com/sketch -->
    <title>kresk</title>
    <desc>Created with Sketch.</desc>
    <g id="Page-1" stroke="none" stroke-width="1" fill="none" fill-rule="evenodd">
        <g id="2" transform="translate(-92.000000, -189.000000)" fill="#FFFFFF">
            <path d="M144.646,283 L115.414,246.334 L114.345443,247.314125 L97.144,263.092 L97.144,283 L92.986,283 L92.986,189.508 L97.144,189.508 L97.144,258.052 L141.496,217.606 L147.04,217.606 L118.69,243.814 L149.938,283 M171.232,231.592 C175.264,222.016 183.958,216.724 196.306,216.724 L196.306,222.898 C195.802,222.898 195.298,222.772 194.794,222.772 C180.178,222.772 171.484,232.474 171.484,248.728 L171.484,283 L165.184,283 L165.184,217.228 L171.232,217.228 L171.232,231.592 Z M271.78,249.862 C271.78,250.618 271.654,251.626 271.654,252.634 L216.214,252.634 C217.222,266.494 227.806,275.692 242.296,275.692 C250.36,275.692 257.542,272.794 262.582,266.998 L267.622,272.794 C261.7,279.85 252.502,283.63 242.044,283.63 C221.38,283.63 207.268,269.518 207.268,249.862 C207.268,230.206 221.002,216.22 239.65,216.22 C258.298,216.22 271.78,229.954 271.78,249.862 Z M239.65,223.906 C226.798,223.906 217.348,232.978 216.214,245.956 L263.212,245.956 C262.078,232.978 252.628,223.906 239.65,223.906 Z M308.194,283.756 C297.106,283.756 286.144,280.354 280.6,275.944 L285.64,266.368 C291.31,270.4 300.382,273.298 309.076,273.298 C320.29,273.298 324.952,269.896 324.952,264.226 C324.952,249.232 282.742,262.21 282.742,235.624 C282.742,223.654 293.452,215.59 310.588,215.59 C319.282,215.59 329.11,217.858 334.906,221.638 L329.74,231.214 C323.692,227.308 317.014,225.922 310.462,225.922 C299.878,225.922 294.712,229.828 294.712,235.12 C294.712,250.87 337.048,238.018 337.048,263.974 C337.048,276.07 325.96,283.756 308.194,283.756 Z M401.812,283 L378.502,254.146 L366.784,265.234 L366.784,283 L351.034,283 L351.034,189.508 L366.784,189.508 L366.784,245.956 L399.418,215.716 L418.318,215.716 L390.22,243.94 L420.964,283 L401.812,283 Z" id="kresk"></path>
        </g>
    </g>
</svg>