<?xml version="1.0" encoding="UTF-8"?>
<svg width="345px" height="75px" viewBox="0 0 345 75" version="1.1" xmlns="http://www.w3.org/2000/svg" xmlns:xlink="http://www.w3.org/1999/xlink">
    <!-- Generator: Sketch 52.3 (67297) - http://www.bohemiancoding.com/sketch -->
    <title>vidacare-logo-white</title>
    <desc>Created with Sketch.</desc>
    <defs>
        <path d="M11.4530205,1.8203703 C5.06445989,4.9496019 0.906603625,12.2871576 0.331925917,21.4464513 C-0.501717058,34.6877876 7.04925978,44.9904544 16.249958,56.133783 C16.7593314,56.7501468 17.3430166,57.4736449 17.9857008,58.26735 C21.4319656,62.5349399 26.645049,68.9835094 30.3029897,71.347301 C31.282554,71.9819004 32.3323767,72.3023914 33.4222827,72.3023914 C35.5768737,72.3023914 37.6936333,71.0012802 38.82047,68.9867006 C39.8847046,67.0815347 39.8545295,64.9101288 38.7394026,63.0318604 C36.9743854,60.0567198 33.2015992,56.1889458 29.8728822,52.7725032 C27.6912687,50.5377286 25.6353097,48.4287796 24.2287905,46.684543 C20.8928674,42.5532644 17.1092723,37.7021348 14.4043238,32.4119828 C12.6685809,29.0105846 12.040759,25.3484171 12.4929349,21.2175944 C12.7280303,19.0530268 13.5995047,16.3837886 14.9028882,14.6276989 L14.8956822,14.6235959 C18.5833476,8.78956661 22.3403707,5.83129391 26.0672187,5.83129391 C27.815572,5.83129391 29.3508983,6.48321716 30.6511291,7.4009245 C27.0607446,2.72668039 22.6565335,0.182356154 18.0442495,0.182356154 C15.887857,0.182356154 13.6688624,0.734895299 11.4530205,1.8203703" id="path-1"></path>
        <linearGradient x1="50.2442049%" y1="65.6984954%" x2="50.2441972%" y2="34.3402409%" id="linearGradient-3">
            <stop stop-color="#D3D3D3" offset="0%"></stop>
            <stop stop-color="#F7F7F7" offset="51.42%"></stop>
            <stop stop-color="#FFFFFF" offset="100%"></stop>
        </linearGradient>
        <path d="M0.276619417,5.86678792 C0.438280115,5.83722103 0.596348353,5.8219896 0.758907166,5.8219896 C1.95474728,5.8219896 3.11017221,6.62074363 4.20362721,8.19495658 C5.46637688,10.0213841 6.74888509,12.3522406 8.10908024,14.821972 C9.53753213,17.4184826 11.0122369,20.1054858 12.6800365,22.6079199 C12.6926101,22.630767 14.4448324,25.0991544 17.3120645,25.0991544 C17.5958689,25.0991544 17.8846128,25.0754113 18.1706625,25.0261332 C19.8317261,24.7443518 22.32175,22.5725292 25.2621784,18.8627804 C24.3249954,18.6387888 23.4717862,17.5206227 22.2332856,15.5324733 C20.9768228,13.5125171 19.8483413,11.383253 18.7584787,9.3247702 C18.2986439,8.45792271 17.8424014,7.59331515 17.370442,6.7336354 C17.0134413,6.02403002 13.8601596,0.0380785715 8.92681394,0.0380785715 C6.10673287,0.0380785715 3.20671957,1.99531715 0.276619417,5.86678792" id="path-4"></path>
        <linearGradient x1="50.0038068%" y1="99.7378064%" x2="50.0038025%" y2="0.340903655%" id="linearGradient-6">
            <stop stop-color="#FFFFFF" offset="0%"></stop>
            <stop stop-color="#FFFFFF" offset="39.71%"></stop>
            <stop stop-color="#D3D3D3" offset="100%"></stop>
        </linearGradient>
        <path d="M21.7118941,5.91049809 C22.0721478,5.75316828 22.4248685,5.67615699 22.7829065,5.67615699 C24.2660173,5.67615699 25.528456,7.03023273 26.6389058,9.82059258 C30.6398042,19.8811958 25.4677491,28.4700803 19.827763,36.40555 C17.099495,40.2424129 12.6350968,44.6613488 8.31825643,48.9352389 C5.93428996,51.2904614 3.68680335,53.5176467 1.94048144,55.4476535 C0.0572365461,57.5312103 -0.521916647,60.6570181 0.497694292,63.2220137 C1.38614276,65.4454193 3.30084892,66.7205939 5.74862416,66.7205939 C11.3469573,66.7205939 21.3472093,54.5783236 25.383557,49.3552576 C31.0168963,42.0727302 35.882758,35.4162148 38.4036475,27.6994949 C40.1734545,22.2746877 40.0223518,14.308508 38.0145912,7.40631239 C36.6582118,4.01828827 33.7234516,0 29.972914,0 C27.2637,-6.7140871e-15 24.4946654,1.98481235 21.7118941,5.91049809" id="path-7"></path>
        <linearGradient x1="50.0006537%" y1="68.383086%" x2="50.000647%" y2="31.611886%" id="linearGradient-9">
            <stop stop-color="#FFFFFF" offset="0%"></stop>
            <stop stop-color="#FFFFFF" offset="56.2%"></stop>
            <stop stop-color="#D3D3D3" offset="100%"></stop>
        </linearGradient>
        <path d="M31.2988876,1.28476198 C24.6321458,3.70295035 21.1742313,10.4094352 17.8303292,16.8941429 C16.8101712,18.8692316 15.8408379,20.7361584 14.797328,22.4662924 L14.8032804,22.4703826 C14.6997994,22.6367154 14.5995235,22.8039571 14.494211,22.9689266 C14.4836797,22.9875595 14.4736064,23.0075558 14.4594121,23.028461 C14.4291919,23.0775428 14.4003455,23.1198077 14.3692096,23.1679806 C14.2464976,23.3652168 14.1301959,23.5483647 14.0166415,23.72106 C13.9850477,23.7696873 13.9520803,23.820587 13.9209444,23.8692143 C13.7680123,24.1005351 13.6251536,24.3091328 13.4937418,24.4981887 C13.4832106,24.5100047 13.4768002,24.5213663 13.4703899,24.5318189 C13.1146167,25.0321807 12.8160785,25.398022 12.5331083,25.6779702 C9.97355564,29.0823395 6.35538299,33.2215726 3.59482074,33.686941 C3.24408418,33.7460209 2.89060035,33.7764698 2.54215319,33.7764698 C1.69553193,33.7764698 0.934076462,33.6019567 0.265112878,33.3420049 C3.17173905,36.8122711 6.56875536,39.3122624 10.689223,39.3122624 L10.6896809,39.3122624 C12.5216613,39.3122624 14.4607857,38.9241525 16.4585188,37.9470608 C22.237888,35.1221296 25.3926855,29.0982456 28.4453756,23.2206981 C29.0886978,21.978201 29.6990527,20.8315953 30.3313858,19.6895341 C30.8634431,18.7301664 31.4119841,17.7953396 31.9751772,16.9423158 C32.1482561,16.6087412 32.3300347,16.2728944 32.5315022,15.9452278 C36.3222958,9.77000819 40.2087865,6.64013348 44.0852038,6.64013348 C46.5083081,6.64013348 48.5971595,7.87672257 50.2560609,9.61867259 C49.7262931,8.60476951 49.1498214,7.64721964 48.5206934,6.7701094 C45.4478566,2.4799951 41.4514745,0.213596793 36.9605814,0.213596793 C35.1606527,0.213596793 33.2540378,0.573984572 31.2988876,1.28476198" id="path-10"></path>
        <linearGradient x1="50.0114816%" y1="99.9851671%" x2="50.0114795%" y2="-0.0156465685%" id="linearGradient-12">
            <stop stop-color="#D3D3D3" offset="0%"></stop>
            <stop stop-color="#FFFFFF" offset="51.42%"></stop>
            <stop stop-color="#FFFFFF" offset="100%"></stop>
        </linearGradient>
    </defs>
    <g id="Page-1" stroke="none" stroke-width="1" fill="none" fill-rule="evenodd">
        <g id="Logo-White-with-Text" transform="translate(-78.000000, -13.000000)">
            <g id="vidacare-logo-white" transform="translate(78.000000, 13.000000)">
                <polygon id="Shape" fill="#FFFFFF" fill-rule="nonzero" points="105.194437 23.063909 118.132377 49.9537833 130.194218 23.063909 132.935504 23.063909 117.338328 57.6597725 115.857836 57.6597725 99.0823634 23.063909"></polygon>
                <polygon id="Rectangle-path" fill="#FFFFFF" fill-rule="nonzero" points="137.889622 23.063909 143.669427 23.063909 143.669427 57.6597725 137.889622 57.6597725"></polygon>
                <g id="Clipped" transform="translate(0.000000, 1.647422)">
                    <g id="Rectangle-path-Clipped">
                        <mask id="mask-2" fill="white">
                            <use xlink:href="#path-1"></use>
                        </mask>
                        <g id="path-1"></g>
                        <rect id="Rectangle-path" fill="url(#linearGradient-3)" fill-rule="nonzero" mask="url(#mask-2)" x="-0.501717058" y="0.182356154" width="40.3864217" height="72.1200352"></rect>
                    </g>
                </g>
                <g id="Clipped" transform="translate(17.339414, 8.237110)">
                    <g id="Rectangle-path-Clipped">
                        <mask id="mask-5" fill="white">
                            <use xlink:href="#path-4"></use>
                        </mask>
                        <g id="path-4"></g>
                        <rect id="Rectangle-path" fill="url(#linearGradient-6)" fill-rule="nonzero" mask="url(#mask-5)" x="0.276619417" y="0.0380785715" width="24.985559" height="25.0610759"></rect>
                    </g>
                </g>
                <g id="Clipped" transform="translate(46.238436, 7.413399)">
                    <g id="Rectangle-path-Clipped">
                        <mask id="mask-8" fill="white">
                            <use xlink:href="#path-7"></use>
                        </mask>
                        <g id="path-7"></g>
                        <polygon id="Rectangle-path" fill="url(#linearGradient-9)" fill-rule="nonzero" mask="url(#mask-8)" points="0 0 40.4586317 0 40.4586317 66.7205939 0 66.7205939"></polygon>
                    </g>
                </g>
                <g id="Clipped" transform="translate(32.201768, 0.000000)">
                    <g id="Rectangle-path-Clipped">
                        <mask id="mask-11" fill="white">
                            <use xlink:href="#path-10"></use>
                        </mask>
                        <g id="path-10"></g>
                        <rect id="Rectangle-path" fill="url(#linearGradient-12)" fill-rule="nonzero" mask="url(#mask-11)" x="0.265112878" y="0.213596793" width="49.9909481" height="39.0986657"></rect>
                    </g>
                </g>
                <path d="M152.751977,23.063909 L164.277545,23.063909 C167.851172,23.063909 170.913958,23.4000803 173.467259,24.0715204 C176.018751,24.7425094 178.151625,25.8047205 179.865429,27.2572513 C181.836914,28.9128386 183.315188,30.8161548 184.300705,32.9681024 C185.287125,35.1200501 185.779431,37.4831765 185.779431,40.0588353 C185.779431,42.4860373 185.336853,44.771551 184.452601,46.9135714 C183.568349,49.0569455 182.274067,50.9232604 180.569757,52.5143208 C178.864995,54.1049301 176.764217,55.3611729 174.267425,56.2794395 C171.771538,57.1995111 168.910828,57.6597725 165.6862,57.6597725 L152.751977,57.6597725 L152.751977,23.063909 Z M158.582798,55.1206638 L164.746343,55.1206638 C166.71828,55.1206638 168.565445,54.7998345 170.288742,54.1554686 C172.010683,53.5120051 173.512466,52.5553834 174.793637,51.2865059 C176.073452,50.0176284 177.082024,48.4549958 177.819805,46.5968033 C178.556682,44.7395132 178.924668,42.5961391 178.924668,40.1684858 C178.924668,38.0544421 178.574765,36.1046485 177.874958,34.3200075 C177.173342,32.536269 176.19732,31.0007106 174.945081,29.7128812 C173.691938,28.4259542 172.204622,27.4233064 170.481777,26.7058401 C168.75848,25.988825 166.865203,25.6300919 164.801044,25.6300919 L158.582346,25.6300919 L158.582346,55.1206638 L158.582798,55.1206638 Z" id="Shape" fill="#FFFFFF" fill-rule="nonzero"></path>
                <path d="M205.701588,22.240198 L222.109631,56.8360614 L216.158412,56.8360614 L210.819009,45.555694 L195.884783,45.555694 L190.378438,56.8360614 L187.430804,56.8360614 L204.227771,22.240198 L205.701588,22.240198 Z M196.913726,43.3695352 L209.734571,43.3695352 L203.421266,29.9851057 L196.913726,43.3695352 Z" id="Shape" fill="#FFFFFF" fill-rule="nonzero"></path>
                <path d="M230.128909,52.1298546 C230.571422,51.9696206 231.008948,51.8906994 231.445644,51.8938881 C231.880261,51.8962797 232.287456,51.971215 232.668474,52.1167011 C233.046583,52.2609914 233.384389,52.4610847 233.683967,52.715785 C233.977729,52.972877 234.194623,53.275807 234.333401,53.628561 C234.47218,53.9825108 234.521209,54.3536 234.481736,54.7446189 C234.436862,55.1356378 234.322598,55.5015453 234.133128,55.8375585 C233.943658,56.1767604 233.685629,56.4840749 233.362782,56.7622922 C233.037858,57.0413067 232.654762,57.2609309 232.211834,57.421165 C231.357141,57.7312696 230.517406,57.7392415 229.700524,57.4442833 C228.884472,57.1481294 228.332682,56.6383301 228.045153,55.9081093 C227.906374,55.5545581 227.861084,55.1890491 227.906374,54.8079951 C227.952495,54.4293326 228.068837,54.0650194 228.254567,53.7158527 C228.437805,53.3670846 228.692094,53.0517982 229.018265,52.7735809 C229.34319,52.4953636 229.715066,52.2793267 230.128909,52.1298546" id="Shape" fill="#FFFFFF" fill-rule="nonzero"></path>
                <path d="M272.476487,42.0950983 C272.486196,44.4516936 266.599224,48.7738553 264.944177,50.128184 C259.958234,54.2074817 254.904333,58.7439617 248.102,59.2704689 C239.330254,59.9478597 237.980328,51.1100609 240.721788,44.7067913 C242.478079,40.607557 249.748725,28.8612818 254.2756,36.0534059 C255.437831,37.9025245 256.283847,41.0620206 254.262194,42.6569476 C252.332539,44.1775655 251.989048,37.6360992 250.39595,37.6392709 C245.5732,38.5201056 243.405922,46.6700921 243.102188,50.6433635 C242.524771,58.2346725 252.104161,55.4793454 256.089217,53.335256 C259.581457,51.4566857 262.567013,48.8295871 265.493856,46.2165348 C266.013485,45.7534622 272.465854,39.8486073 272.476487,42.0950983" id="Shape" fill="#FFFFFF" fill-rule="nonzero"></path>
                <path d="M303.026604,40.4439612 C303.045514,45.082211 295.46438,53.7063693 292.02319,55.9629665 C289.920932,57.3423092 287.47368,58.2134975 285.11452,56.5387814 C283.929637,55.6965237 282.904798,48.4993039 282.790414,48.6607561 C281.631359,50.3028085 279.05727,54.4016401 275.271085,56.9069483 C272.58215,58.6885215 269.37065,60.9404524 266.880042,57.5536902 C264.203561,53.9149505 267.502233,47.5487893 269.264568,44.2240881 C271.679074,39.6726305 274.288678,35.6367933 279.465914,34.2037887 C283.278389,33.1478169 284.779672,34.0712673 287.105623,36.5154476 C288.019307,37.4757613 286.481587,40.4677591 286.247286,41.677717 C285.887531,43.546549 285.775454,48.0984733 286.19978,49.9453739 C287.388353,55.0987775 290.472095,53.2224794 293.4968,50.579517 C295.526184,48.8049431 298.136249,44.6860466 299.407843,42.300661 C300.630085,40.0058006 301.015668,37.2167846 301.476892,36.6092392 C303.000314,34.5985532 303.019224,38.7608458 303.026604,40.4439612 C303.027987,41.0207094 303.023836,39.8312829 303.026604,40.4439612 M283.320822,37.60175 C283.318515,36.9293438 281.840293,37.2639137 281.275294,37.1052613 C277.467893,37.5387556 275.497084,40.9119858 273.651728,43.8918513 C272.165204,46.2903024 268.449586,51.4768363 269.887682,54.4828328 C271.642177,58.1519031 277.609027,50.2687449 278.462752,49.1413795 C280.936756,45.8778062 283.340193,41.8750993 283.320822,37.60175 C283.320822,37.5672198 283.322205,37.7380044 283.320822,37.60175" id="Shape" fill="#FFFFFF" fill-rule="nonzero"></path>
                <path d="M322.017676,36.7201004 C322.024098,38.0989142 316.065508,39.3202482 314.857277,39.9506001 C311.656886,41.6205786 309.141802,44.5949573 307.574863,47.6653813 C306.168929,50.4208458 305.412065,52.6316203 304.900149,55.6371489 C302.210756,58.4302527 300.944728,55.8067425 300.933261,53.2247655 C300.917665,49.9704707 301.311234,46.7239634 301.228208,43.4683708 C301.17454,41.3384993 299.948878,38.0868004 300.927756,36.0637902 C302.041953,33.7604314 305.678114,34.2627228 305.690499,36.9061343 C305.705178,39.9618487 304.921708,42.9929028 305.031339,46.0499152 C306.995059,42.4806607 309.498217,38.8919376 313.083462,36.5993947 C314.523339,35.6778781 321.999328,32.8808805 322.017676,36.7201004" id="Shape" fill="#FFFFFF" fill-rule="nonzero"></path>
                <path d="M344.311178,47.5099211 C344.327867,51.2556931 338.392182,55.0278726 335.558534,56.5353785 C331.347305,58.7763764 324.963703,59.9546988 322.001047,55.1339581 C317.397835,47.6487883 323.009198,32.1675997 332.668952,32.1248013 C338.084098,32.100215 337.083165,38.4739918 334.729008,41.4439287 C333.179568,43.3980861 331.232281,45.0075797 329.228609,46.4636365 C327.296659,47.86961 324.182893,48.6099315 324.872586,51.4236997 C326.002978,56.0418309 332.103756,54.430516 335.070471,52.9626214 C337.099403,51.9595905 338.932569,50.5786586 340.579892,49.0256225 C341.371527,48.2798373 344.295841,44.2381189 344.311178,47.5099211 M332.837654,36.9469079 C332.826377,34.2988698 328.790165,36.8531156 328.173096,37.4928154 C325.96599,39.7797988 324.818006,43.092123 324.456695,46.2063907 C327.233057,44.3860921 332.854344,40.8265388 332.837654,36.9469079 C332.836752,36.7643317 332.83991,37.3940148 332.837654,36.9469079" id="Shape" fill="#FFFFFF" fill-rule="nonzero"></path>
            </g>
        </g>
    </g>
</svg>